<?xml version="1.0" encoding="iso-8859-1"?>
<!-- Generator: Adobe Illustrator 16.0.0, SVG Export Plug-In . SVG Version: 6.00 Build 0)  -->
<!DOCTYPE svg PUBLIC "-//W3C//DTD SVG 1.1//EN" "http://www.w3.org/Graphics/SVG/1.1/DTD/svg11.dtd">
<svg version="1.1" id="Capa_1" xmlns="http://www.w3.org/2000/svg" xmlns:xlink="http://www.w3.org/1999/xlink" x="0px" y="0px"
	 width="612px" height="612px" viewBox="0 0 612 612" style="enable-background:new 0 0 612 612;" xml:space="preserve">
<g>
	<g id="Shape_14_2_">
		<g>
			<polygon points="612,458.237 515.125,189.17 505.008,192.819 494.858,189.235 438.236,349.675 396.024,273.69 386.618,278.92 
				376.695,274.745 304.628,445.894 246.531,126.316 235.94,128.243 225.877,124.411 149.386,325.2 105.959,220.963 
				104.689,221.501 105.938,218.52 86.102,210.168 0,414.659 19.835,423.011 93.711,247.558 139.904,358.403 149.838,354.259 
				159.891,358.091 232.249,168.151 289.926,485.339 300.517,483.411 310.429,487.589 387.953,303.481 431.015,381.015 
				440.432,375.784 450.581,379.368 505.104,224.87 591.744,465.536 			"/>
		</g>
	</g>
</g>
<g>
</g>
<g>
</g>
<g>
</g>
<g>
</g>
<g>
</g>
<g>
</g>
<g>
</g>
<g>
</g>
<g>
</g>
<g>
</g>
<g>
</g>
<g>
</g>
<g>
</g>
<g>
</g>
<g>
</g>
</svg>
